<svg width="14" height="14" viewBox="0 0 14 14" fill="none" xmlns="http://www.w3.org/2000/svg">
<path d="M8.83209 3.75379C8.91787 3.71006 9.00047 3.66035 9.07928 3.60504C9.71803 3.1566 9.9149 2.33192 9.51678 1.76754C9.11865 1.20317 8.27865 1.11129 7.6399 1.5641C7.00115 2.01692 6.67303 2.81754 6.31646 3.7516L8.83209 3.75379ZM1.07959 6.66317H11.2755V11.8475C11.2755 12.0796 11.1833 12.3022 11.0192 12.4663C10.8552 12.6304 10.6326 12.7225 10.4005 12.7225H1.95459C1.72253 12.7225 1.49997 12.6304 1.33587 12.4663C1.17178 12.3022 1.07959 12.0796 1.07959 11.8475V6.66317Z" stroke="white" stroke-width="0.7" stroke-linecap="round" stroke-linejoin="round"/>
<path d="M7.4561 6.66309H4.89673V12.7225H7.4561V6.66309Z" stroke="white" stroke-width="0.7" stroke-linecap="round" stroke-linejoin="round"/>
<path d="M3.52075 3.75379C3.43541 3.71053 3.3535 3.6608 3.27575 3.60504C2.637 3.1566 2.43794 2.33192 2.83825 1.76754C3.23856 1.20317 4.07638 1.11129 4.71731 1.5641C5.35825 2.01692 5.682 2.81754 6.04075 3.7516L3.52075 3.75379Z" stroke="white" stroke-width="0.7" stroke-linecap="round" stroke-linejoin="round"/>
<path d="M11.0984 3.75378H1.25464C0.892202 3.75378 0.598389 4.0476 0.598389 4.41003V6.00691C0.598389 6.36935 0.892202 6.66316 1.25464 6.66316H11.0984C11.4608 6.66316 11.7546 6.36935 11.7546 6.00691V4.41003C11.7546 4.0476 11.4608 3.75378 11.0984 3.75378Z" stroke="white" stroke-width="0.7" stroke-linecap="round" stroke-linejoin="round"/>
<path d="M7.69011 3.75378H4.66479V6.66316H7.69011V3.75378Z" stroke="white" stroke-width="0.7" stroke-linecap="round" stroke-linejoin="round"/>
</svg>
