<svg width="71" height="16" viewBox="0 0 71 16" fill="none" xmlns="http://www.w3.org/2000/svg">
<path d="M5.03742 10.96C8.90409 10.9333 12.1041 10.8667 14.6374 10.76C14.4641 11.44 14.3574 12.0933 14.3174 12.72C14.2774 13.3467 14.2574 14.1067 14.2574 15H0.157422C0.264089 12.4133 0.317422 9.99333 0.317422 7.74C0.317422 5.48667 0.264089 3.06667 0.157422 0.48H5.03742V10.96ZM24.1355 15.2C21.0822 15.2 18.8355 14.54 17.3955 13.22C15.9555 11.8867 15.2355 10.02 15.2355 7.62C15.2355 5.24667 15.9489 3.39333 17.3755 2.06C18.8155 0.726666 21.0689 0.0599992 24.1355 0.0599992C27.2155 0.0599992 29.4689 0.726666 30.8955 2.06C32.3355 3.39333 33.0555 5.24667 33.0555 7.62C33.0555 10.0333 32.3422 11.9 30.9155 13.22C29.4889 14.54 27.2289 15.2 24.1355 15.2ZM24.1355 11.12C25.6155 11.12 26.6822 10.84 27.3355 10.28C27.9889 9.70667 28.3155 8.82 28.3155 7.62C28.3155 6.44667 27.9889 5.57333 27.3355 5C26.6822 4.42667 25.6155 4.14 24.1355 4.14C22.6689 4.14 21.6089 4.42667 20.9555 5C20.3022 5.57333 19.9755 6.44667 19.9755 7.62C19.9755 8.80667 20.3022 9.68667 20.9555 10.26C21.6089 10.8333 22.6689 11.12 24.1355 11.12ZM42.8896 6.72H51.4296V15H47.9096L47.4896 11.46C47.0896 12.7267 46.3763 13.6667 45.3496 14.28C44.3229 14.8933 43.0696 15.2 41.5896 15.2C40.2429 15.2 39.0429 14.9 37.9896 14.3C36.9496 13.7 36.1296 12.84 35.5296 11.72C34.9429 10.6 34.6496 9.29333 34.6496 7.8C34.6496 5.41333 35.3629 3.52667 36.7896 2.14C38.2163 0.753333 40.4363 0.0599992 43.4496 0.0599992C45.1696 0.0599992 46.6829 0.339999 47.9896 0.899999C49.3096 1.46 50.4296 2.32667 51.3496 3.5C50.7496 3.80667 49.5763 4.42 47.8296 5.34L47.3296 5.62C46.8096 5.1 46.2029 4.71333 45.5096 4.46C44.8163 4.19333 44.0829 4.06 43.3096 4.06C42.0296 4.06 41.0763 4.4 40.4496 5.08C39.8229 5.74667 39.5096 6.57333 39.5096 7.56C39.5096 8.62667 39.8429 9.48667 40.5096 10.14C41.1896 10.7933 42.2229 11.12 43.6096 11.12C44.2096 11.12 44.7896 11.0333 45.3496 10.86C45.9229 10.6867 46.4029 10.3867 46.7896 9.96H42.8896V6.72ZM61.9285 15.2C58.8752 15.2 56.6285 14.54 55.1885 13.22C53.7485 11.8867 53.0285 10.02 53.0285 7.62C53.0285 5.24667 53.7418 3.39333 55.1685 2.06C56.6085 0.726666 58.8618 0.0599992 61.9285 0.0599992C65.0085 0.0599992 67.2618 0.726666 68.6885 2.06C70.1285 3.39333 70.8485 5.24667 70.8485 7.62C70.8485 10.0333 70.1352 11.9 68.7085 13.22C67.2818 14.54 65.0218 15.2 61.9285 15.2ZM61.9285 11.12C63.4085 11.12 64.4752 10.84 65.1285 10.28C65.7818 9.70667 66.1085 8.82 66.1085 7.62C66.1085 6.44667 65.7818 5.57333 65.1285 5C64.4752 4.42667 63.4085 4.14 61.9285 4.14C60.4618 4.14 59.4018 4.42667 58.7485 5C58.0952 5.57333 57.7685 6.44667 57.7685 7.62C57.7685 8.80667 58.0952 9.68667 58.7485 10.26C59.4018 10.8333 60.4618 11.12 61.9285 11.12Z" fill="#BABABA"/>
</svg>
