<svg width="32" height="20" viewBox="0 0 32 20" fill="none" xmlns="http://www.w3.org/2000/svg">
<path d="M30.3639 8.77197H2.63611C1.73251 8.77197 1 9.29428 1 9.93858V10.0614C1 10.7057 1.73251 11.228 2.63611 11.228H30.3639C31.2675 11.228 32 10.7057 32 10.0614V9.93858C32 9.29428 31.2675 8.77197 30.3639 8.77197Z" fill="white"/>
<path d="M30.3639 17.2319H2.63611C1.73251 17.2319 1 17.7542 1 18.3985V18.5213C1 19.1656 1.73251 19.688 2.63611 19.688H30.3639C31.2675 19.688 32 19.1656 32 18.5213V18.3985C32 17.7542 31.2675 17.2319 30.3639 17.2319Z" fill="white"/>
<path d="M30.3639 0.3125H2.63611C1.73251 0.3125 1 0.834809 1 1.47911V1.60191C1 2.24621 1.73251 2.76852 2.63611 2.76852H30.3639C31.2675 2.76852 32 2.24621 32 1.60191V1.47911C32 0.834809 31.2675 0.3125 30.3639 0.3125Z" fill="white"/>
</svg>
