<svg width="16" height="16" viewBox="0 0 20 20" fill="#fff" xmlns="http://www.w3.org/2000/svg">
<path d="M10.0052 18.3356C5.40284 18.3356 1.67188 14.6047 1.67188 10.0022C1.67188 5.3999 5.40284 1.66895 10.0052 1.66895C14.6076 1.66895 18.3386 5.3999 18.3386 10.0022C18.3386 14.6047 14.6076 18.3356 10.0052 18.3356ZM10.0052 16.6689C13.6871 16.6689 16.6719 13.6842 16.6719 10.0022C16.6719 6.32038 13.6871 3.33561 10.0052 3.33561C6.32331 3.33561 3.33854 6.32038 3.33854 10.0022C3.33854 13.6842 6.32331 16.6689 10.0052 16.6689ZM7.08854 11.6689H11.6719C11.902 11.6689 12.0886 11.4824 12.0886 11.2522C12.0886 11.0222 11.902 10.8356 11.6719 10.8356H8.33856C7.18795 10.8356 6.25521 9.9029 6.25521 8.75224C6.25521 7.60168 7.18795 6.66895 8.33856 6.66895H9.17189V5.00228H10.8386V6.66895H12.9219V8.33557H8.33856C8.10843 8.33557 7.92188 8.52215 7.92188 8.75224C7.92188 8.9824 8.10843 9.1689 8.33856 9.1689H11.6719C12.8225 9.1689 13.7552 10.1017 13.7552 11.2522C13.7552 12.4029 12.8225 13.3356 11.6719 13.3356H10.8386V15.0022H9.17189V13.3356H7.08854V11.6689Z" fill="#ffffff"/>
</svg>
