<svg width="18" height="18" viewBox="0 0 18 18" fill="none" xmlns="http://www.w3.org/2000/svg">
<path d="M10.2 17.7H7.79998C7.19998 17.7 6.67498 17.25 6.59998 16.65L5.99998 12.3C5.92498 11.925 6.07498 11.625 6.29998 11.325C6.52498 11.1 6.89998 10.875 7.19998 10.875H10.8C11.175 10.875 11.475 11.025 11.7 11.325C11.925 11.625 12.075 11.925 12 12.3L11.4 16.65C11.4 17.25 10.8 17.7 10.2 17.7ZM7.19998 11.625C7.04998 11.625 6.89998 11.7 6.82498 11.775C6.74998 11.925 6.67498 12.075 6.74998 12.225L7.27498 16.5C7.27498 16.725 7.49998 16.95 7.72498 16.95H10.125C10.35 16.95 10.575 16.8 10.575 16.5L11.175 12.15C11.175 12.075 11.175 11.925 11.1 11.775C11.025 11.7 10.875 11.625 10.725 11.625H7.19998ZM8.99998 10.575C7.72498 10.575 6.67498 9.52499 6.67498 8.24999C6.67498 6.97499 7.72498 5.92499 8.99998 5.92499C10.275 5.92499 11.325 6.97499 11.325 8.24999C11.325 9.52499 10.275 10.575 8.99998 10.575ZM8.99998 6.59999C8.09998 6.59999 7.42498 7.34999 7.42498 8.17499C7.42498 9.07499 8.17498 9.74999 8.99998 9.74999C9.89998 9.74999 10.575 8.99999 10.575 8.17499C10.575 7.34999 9.89998 6.59999 8.99998 6.59999Z" fill="white"/>
<path d="M12.6 12.225C12.525 12.225 12.375 12.225 12.3 12.15C12.15 12 12.15 11.775 12.3 11.625C13.2 10.725 13.65 9.59999 13.65 8.32499C13.65 7.04999 13.125 5.92499 12.3 5.02499C10.5 3.07499 7.50002 3.07499 5.70002 4.94999C4.80002 5.77499 4.27502 6.97499 4.27502 8.24999C4.27502 9.52499 4.80002 10.65 5.62502 11.55C5.77502 11.7 5.77502 11.925 5.62502 12.075C5.47502 12.225 5.25002 12.225 5.10002 12.075C4.05002 11.025 3.52502 9.67499 3.52502 8.24999C3.52502 6.82499 4.12502 5.39999 5.10002 4.42499C7.27502 2.24999 10.725 2.24999 12.825 4.34999C13.875 5.39999 14.4 6.74999 14.4 8.17499C14.4 9.59999 13.8 11.025 12.825 12C12.75 12.15 12.675 12.225 12.6 12.225Z" fill="white"/>
<path d="M14.325 13.95C14.25 13.95 14.1 13.95 14.025 13.875C13.875 13.725 13.875 13.5 14.025 13.35C15.375 12 16.125 10.2 16.125 8.24998C16.125 6.29998 15.375 4.49998 14.025 3.14998C11.25 0.374975 6.74998 0.374975 3.89998 3.14998C1.12498 5.92498 1.12498 10.5 3.89998 13.35C4.04998 13.5 4.04998 13.725 3.89998 13.875C3.74998 14.025 3.52498 14.025 3.37498 13.875C0.299976 10.8 0.299976 5.77498 3.37498 2.62498C6.44998 -0.450024 11.475 -0.450024 14.625 2.62498C16.125 4.12498 16.95 6.14998 16.95 8.24998C16.95 10.35 16.125 12.375 14.625 13.875C14.55 13.95 14.475 13.95 14.325 13.95Z" fill="white"/>
</svg>
