<svg width="17" height="17" viewBox="0 0 17 17" fill="none" xmlns="http://www.w3.org/2000/svg">
<path d="M10.3387 1.26172H2.38527C1.94527 1.26332 1.5239 1.43945 1.21365 1.75145C0.903394 2.06344 0.729625 2.4858 0.73049 2.92579V11.7495C0.729504 11.8355 0.76219 11.9185 0.821567 11.9808L4.36597 15.6356C4.39656 15.6677 4.43329 15.6933 4.47399 15.711C4.51468 15.7286 4.55851 15.7379 4.60287 15.7383H10.3387C11.2541 15.7383 11.9863 14.9896 11.9863 14.0742V2.92579C11.9863 2.01038 11.2541 1.26172 10.3387 1.26172ZM4.28322 14.5836L1.84216 12.0859H3.93881C4.12189 12.0859 4.28322 12.2305 4.28322 12.4136V14.5836ZM11.3223 14.0742C11.3236 14.2042 11.2993 14.3332 11.2508 14.4538C11.2023 14.5744 11.1305 14.6843 11.0395 14.7772C10.9485 14.87 10.8401 14.944 10.7205 14.995C10.6009 15.046 10.4725 15.0729 10.3425 15.0742H4.94729V12.4136C4.94729 11.8643 4.48805 11.4219 3.93881 11.4219H1.39455V2.92579C1.39351 2.66186 1.49726 2.40831 1.68301 2.22081C1.86877 2.03332 2.12134 1.9272 2.38527 1.92578H10.3387C10.6012 1.92746 10.8523 2.03334 11.0368 2.22014C11.2212 2.40694 11.324 2.65936 11.3223 2.92188V14.0742H11.3223Z" fill="white"/>
<path d="M9.62187 5.57812H3.30664C3.21858 5.57812 3.13413 5.61311 3.07186 5.67537C3.00959 5.73764 2.97461 5.8221 2.97461 5.91016C2.97461 5.99822 3.00959 6.08267 3.07186 6.14494C3.13413 6.20721 3.21858 6.24219 3.30664 6.24219H9.62187C9.70993 6.24219 9.79439 6.20721 9.85666 6.14494C9.91892 6.08267 9.95391 5.99822 9.95391 5.91016C9.95391 5.8221 9.91892 5.73764 9.85666 5.67537C9.79439 5.61311 9.70993 5.57812 9.62187 5.57812Z" fill="white"/>
<path d="M9.62187 7.57031H3.30664C3.21858 7.57031 3.13413 7.60529 3.07186 7.66756C3.00959 7.72983 2.97461 7.81428 2.97461 7.90234C2.97461 7.9904 3.00959 8.07486 3.07186 8.13713C3.13413 8.19939 3.21858 8.23438 3.30664 8.23438H9.62187C9.70993 8.23438 9.79439 8.19939 9.85666 8.13713C9.91892 8.07486 9.95391 7.9904 9.95391 7.90234C9.95391 7.81428 9.91892 7.72983 9.85666 7.66756C9.79439 7.60529 9.70993 7.57031 9.62187 7.57031Z" fill="white"/>
<path d="M9.62187 9.5625H3.30664C3.21858 9.5625 3.13413 9.59748 3.07186 9.65975C3.00959 9.72202 2.97461 9.80647 2.97461 9.89453C2.97461 9.98259 3.00959 10.067 3.07186 10.1293C3.13413 10.1916 3.21858 10.2266 3.30664 10.2266H9.62187C9.70993 10.2266 9.79439 10.1916 9.85666 10.1293C9.91892 10.067 9.95391 9.98259 9.95391 9.89453C9.95391 9.80647 9.91892 9.72202 9.85666 9.65975C9.79439 9.59748 9.70993 9.5625 9.62187 9.5625Z" fill="white"/>
<path d="M3.30664 4.38281H6.22231C6.31037 4.38281 6.39482 4.34783 6.45709 4.28556C6.51936 4.2233 6.55434 4.13884 6.55434 4.05078C6.55434 3.96272 6.51936 3.87827 6.45709 3.816C6.39482 3.75373 6.31037 3.71875 6.22231 3.71875H3.30664C3.21858 3.71875 3.13413 3.75373 3.07186 3.816C3.00959 3.87827 2.97461 3.96272 2.97461 4.05078C2.97461 4.13884 3.00959 4.2233 3.07186 4.28556C3.13413 4.34783 3.21858 4.38281 3.30664 4.38281Z" fill="white"/>
<path d="M14.7904 1.58783C14.3987 1.58833 14.0233 1.74405 13.7463 2.02088C13.4692 2.2977 13.3133 2.67305 13.3125 3.06467L13.3058 13.092C13.3058 13.1454 13.3187 13.198 13.3433 13.2454L14.4958 15.462C14.5239 15.5159 14.5661 15.5611 14.6181 15.5926C14.67 15.6242 14.7296 15.6409 14.7904 15.6409C14.8512 15.6409 14.9108 15.6242 14.9627 15.5926C15.0146 15.5611 15.0569 15.5159 15.085 15.462L16.2375 13.2454C16.2621 13.198 16.275 13.1454 16.2749 13.092L16.2683 3.06467C16.2675 2.67304 16.1115 2.29769 15.8345 2.02086C15.5575 1.74404 15.182 1.58832 14.7904 1.58783ZM15.6055 4.94729H13.9752L13.9754 4.61526H15.6052L15.6055 4.94729ZM15.606 5.61135L15.6106 12.75H13.9701L13.9749 5.61135H15.606ZM14.7904 2.25189C15.0061 2.25219 15.2129 2.33798 15.3654 2.49046C15.518 2.64294 15.6039 2.84968 15.6043 3.06537L15.6048 3.95119H13.976L13.9766 3.06527C13.977 2.84959 14.0629 2.64288 14.2154 2.49041C14.368 2.33795 14.5747 2.25218 14.7904 2.25189ZM14.7904 14.5789L14.1848 13.4141H15.396L14.7904 14.5789Z" fill="white"/>
</svg>
