<svg width="20" height="20" viewBox="0 0 20 20" fill="none" xmlns="http://www.w3.org/2000/svg">
<g clip-path="url(#clip0_248_555)">
<path fill-rule="evenodd" clip-rule="evenodd" d="M10 15.8334C9.31002 15.8334 8.75002 16.3934 8.75002 17.0834C8.75002 17.7734 9.31002 18.3334 10 18.3334C10.69 18.3334 11.25 17.7734 11.25 17.0834C11.25 16.3934 10.69 15.8334 10 15.8334ZM10 16.6667C10.23 16.6667 10.4167 16.8534 10.4167 17.0834C10.4167 17.3134 10.23 17.5 10 17.5C9.77002 17.5 9.58336 17.3134 9.58336 17.0834C9.58336 16.8534 9.77002 16.6667 10 16.6667ZM7.33752 6.82919C7.33752 5.35919 8.53086 4.16669 10 4.16669C11.4692 4.16669 12.6625 5.35919 12.6625 6.82919C12.6625 7.49752 12.3567 7.87085 11.9767 8.15169C11.5609 8.46002 11.085 8.69585 10.6592 8.96085C9.47419 9.69252 8.75252 10.9867 8.75252 12.3792C8.75002 13.1875 8.74669 14.1625 8.74669 14.1625C8.74503 14.8525 9.30336 15.4142 9.99253 15.4167C10.6825 15.4192 11.245 14.8609 11.2467 14.1709L11.2525 12.3792C11.2525 11.8525 11.5259 11.3642 11.9734 11.0875C11.975 11.0867 11.9767 11.085 11.9784 11.0842C13.4459 10.1692 15.1625 9.35419 15.1625 6.82919C15.1625 3.98002 12.8492 1.66669 10 1.66669C7.15086 1.66669 4.83752 3.98002 4.83752 6.82919C4.83752 7.51835 5.39836 8.07919 6.08752 8.07919C6.77752 8.07919 7.33752 7.51835 7.33752 6.82919ZM6.50419 6.82919C6.50419 4.89919 8.07086 3.33335 10 3.33335C11.9292 3.33335 13.4959 4.89919 13.4959 6.82919C13.4959 7.83419 13.0434 8.39835 12.4734 8.82169C12.0392 9.14335 11.5425 9.39169 11.0975 9.66919C10.1584 10.2492 9.58586 11.275 9.58586 12.3792C9.58336 13.19 9.58003 14.165 9.58003 14.165C9.57919 14.395 9.76586 14.5825 9.99586 14.5834C10.2259 14.5842 10.4125 14.3975 10.4134 14.1684L10.4192 12.3792C10.4192 11.5634 10.8417 10.8067 11.5359 10.3784L11.5375 10.3775C12.0009 10.0875 12.5167 9.82669 12.9692 9.49085C13.7309 8.92669 14.3292 8.17085 14.3292 6.82919C14.3292 4.44002 12.3892 2.50002 10 2.50002C7.61086 2.50002 5.67086 4.44002 5.67086 6.82919C5.67086 7.05919 5.85752 7.24585 6.08752 7.24585C6.31752 7.24585 6.50419 7.05919 6.50419 6.82919Z" fill="white"/>
</g>
<defs>
<clipPath id="clip0_248_555">
<rect width="20" height="20" fill="white"/>
</clipPath>
</defs>
</svg>
